<svg width="17" height="17" viewBox="0 0 17 17" fill="none" xmlns="http://www.w3.org/2000/svg">
<path d="M8.33333 16.6667C3.73083 16.6667 0 12.9358 0 8.33333C0 3.73083 3.73083 0 8.33333 0C12.9358 0 16.6667 3.73083 16.6667 8.33333C16.6667 12.9358 12.9358 16.6667 8.33333 16.6667ZM8.33333 15C10.1014 15 11.7971 14.2976 13.0474 13.0474C14.2976 11.7971 15 10.1014 15 8.33333C15 6.56522 14.2976 4.86953 13.0474 3.61929C11.7971 2.36905 10.1014 1.66667 8.33333 1.66667C6.56522 1.66667 4.86953 2.36905 3.61929 3.61929C2.36905 4.86953 1.66667 6.56522 1.66667 8.33333C1.66667 10.1014 2.36905 11.7971 3.61929 13.0474C4.86953 14.2976 6.56522 15 8.33333 15ZM8.33333 4.16667C8.55435 4.16667 8.76631 4.25446 8.92259 4.41074C9.07887 4.56702 9.16667 4.77899 9.16667 5V9.16667C9.16667 9.38768 9.07887 9.59964 8.92259 9.75592C8.76631 9.9122 8.55435 10 8.33333 10C8.11232 10 7.90036 9.9122 7.74408 9.75592C7.5878 9.59964 7.5 9.38768 7.5 9.16667V5C7.5 4.77899 7.5878 4.56702 7.74408 4.41074C7.90036 4.25446 8.11232 4.16667 8.33333 4.16667ZM8.33333 12.5C8.11232 12.5 7.90036 12.4122 7.74408 12.2559C7.5878 12.0996 7.5 11.8877 7.5 11.6667C7.5 11.4457 7.5878 11.2337 7.74408 11.0774C7.90036 10.9211 8.11232 10.8333 8.33333 10.8333C8.55435 10.8333 8.76631 10.9211 8.92259 11.0774C9.07887 11.2337 9.16667 11.4457 9.16667 11.6667C9.16667 11.8877 9.07887 12.0996 8.92259 12.2559C8.76631 12.4122 8.55435 12.5 8.33333 12.5Z" fill="#D94F4F"/>
</svg>
