<svg width="18" height="20" viewBox="0 0 18 20" fill="none" xmlns="http://www.w3.org/2000/svg">
<path d="M1.86207 0C1.36822 0 0.894593 0.191558 0.545387 0.532533C0.196181 0.873508 0 1.33597 0 1.81818V16.3636C0 16.8458 0.196181 17.3083 0.545387 17.6493C0.894593 17.9903 1.36822 18.1818 1.86207 18.1818H6.69103C5.9619 17.0889 5.57715 15.8111 5.58445 14.5067C5.59175 13.2023 5.99076 11.9287 6.73208 10.8436C7.47339 9.75845 8.52443 8.90951 9.75501 8.40191C10.9856 7.89432 12.3416 7.75036 13.6552 7.98788V1.81818C13.6552 1.33597 13.459 0.873508 13.1098 0.532533C12.7606 0.191558 12.287 0 11.7931 0H1.86207ZM4.34483 9.09091C4.34483 9.41238 4.21404 9.72069 3.98124 9.94801C3.74843 10.1753 3.43268 10.303 3.10345 10.303C2.77421 10.303 2.45846 10.1753 2.22566 9.94801C1.99286 9.72069 1.86207 9.41238 1.86207 9.09091C1.86207 8.76943 1.99286 8.46113 2.22566 8.23381C2.45846 8.00649 2.77421 7.87879 3.10345 7.87879C3.43268 7.87879 3.74843 8.00649 3.98124 8.23381C4.21404 8.46113 4.34483 8.76943 4.34483 9.09091ZM18 14.5455C18 15.9921 17.4115 17.3795 16.3638 18.4024C15.3162 19.4253 13.8953 20 12.4138 20C10.9322 20 9.51137 19.4253 8.46375 18.4024C7.41613 17.3795 6.82759 15.9921 6.82759 14.5455C6.82759 13.0988 7.41613 11.7114 8.46375 10.6885C9.51137 9.66558 10.9322 9.09091 12.4138 9.09091C13.8953 9.09091 15.3162 9.66558 16.3638 10.6885C17.4115 11.7114 18 13.0988 18 14.5455ZM9.49283 14.1164L9.4891 14.12C9.37538 14.2324 9.31122 14.3838 9.31034 14.5418V14.5491C9.31136 14.7083 9.37646 14.8606 9.49159 14.9733L11.9743 17.3976C12.032 17.4539 12.1004 17.4986 12.1757 17.5292C12.2511 17.5597 12.3318 17.5754 12.4134 17.5755C12.4949 17.5755 12.5757 17.5599 12.651 17.5295C12.7264 17.4991 12.7949 17.4545 12.8526 17.3982C12.9103 17.3419 12.9561 17.2751 12.9874 17.2015C13.0186 17.128 13.0348 17.0492 13.0348 16.9695C13.0349 16.8899 13.0189 16.811 12.9877 16.7374C12.9566 16.6638 12.9109 16.597 12.8532 16.5406L11.4294 15.1515H14.8966C15.0612 15.1515 15.219 15.0877 15.3354 14.974C15.4518 14.8603 15.5172 14.7062 15.5172 14.5455C15.5172 14.3847 15.4518 14.2306 15.3354 14.1169C15.219 14.0032 15.0612 13.9394 14.8966 13.9394H11.4294L12.8532 12.5503C12.9698 12.4365 13.0353 12.2822 13.0353 12.1212C13.0353 11.9603 12.9698 11.8059 12.8532 11.6921C12.7367 11.5783 12.5786 11.5144 12.4138 11.5144C12.249 11.5144 12.0909 11.5783 11.9743 11.6921L9.49159 14.1164H9.49283Z" fill="current"/>
</svg>
