<svg width="18" height="20" viewBox="0 0 18 20" fill="none" xmlns="http://www.w3.org/2000/svg">
<path d="M1.86207 0C1.36822 0 0.894593 0.191558 0.545387 0.532533C0.196181 0.873508 0 1.33597 0 1.81818V16.3636C0 16.8458 0.196181 17.3083 0.545387 17.6493C0.894593 17.9903 1.36822 18.1818 1.86207 18.1818H6.69103C5.9619 17.0889 5.57715 15.8111 5.58445 14.5067C5.59175 13.2023 5.99076 11.9287 6.73208 10.8436C7.47339 9.75845 8.52443 8.90951 9.75501 8.40191C10.9856 7.89432 12.3416 7.75036 13.6552 7.98788V1.81818C13.6552 1.33597 13.459 0.873508 13.1098 0.532533C12.7606 0.191558 12.287 0 11.7931 0H1.86207ZM4.34483 9.09091C4.34483 9.41238 4.21404 9.72069 3.98124 9.94801C3.74843 10.1753 3.43268 10.303 3.10345 10.303C2.77421 10.303 2.45846 10.1753 2.22566 9.94801C1.99286 9.72069 1.86207 9.41238 1.86207 9.09091C1.86207 8.76943 1.99286 8.46113 2.22566 8.23381C2.45846 8.00649 2.77421 7.87879 3.10345 7.87879C3.43268 7.87879 3.74843 8.00649 3.98124 8.23381C4.21404 8.46113 4.34483 8.76943 4.34483 9.09091ZM12.4138 20C13.8953 20 15.3162 19.4253 16.3638 18.4024C17.4115 17.3795 18 15.9921 18 14.5455C18 13.0988 17.4115 11.7114 16.3638 10.6885C15.3162 9.66558 13.8953 9.09091 12.4138 9.09091C10.9322 9.09091 9.51137 9.66558 8.46375 10.6885C7.41613 11.7114 6.82759 13.0988 6.82759 14.5455C6.82759 15.9921 7.41613 17.3795 8.46375 18.4024C9.51137 19.4253 10.9322 20 12.4138 20ZM12.8532 17.3988C12.7367 17.5126 12.5786 17.5765 12.4138 17.5765C12.249 17.5765 12.0909 17.5126 11.9743 17.3988C11.8578 17.285 11.7923 17.1306 11.7923 16.9697C11.7923 16.8088 11.8578 16.6544 11.9743 16.5406L13.3982 15.1515H9.93103C9.76642 15.1515 9.60854 15.0877 9.49214 14.974C9.37574 14.8603 9.31034 14.7062 9.31034 14.5455C9.31034 14.3847 9.37574 14.2306 9.49214 14.1169C9.60854 14.0032 9.76642 13.9394 9.93103 13.9394H13.3982L11.9743 12.5503C11.8578 12.4365 11.7923 12.2822 11.7923 12.1212C11.7923 11.9603 11.8578 11.8059 11.9743 11.6921C12.0909 11.5783 12.249 11.5144 12.4138 11.5144C12.5786 11.5144 12.7367 11.5783 12.8532 11.6921L15.336 14.1164C15.4514 14.2294 15.5166 14.3822 15.5172 14.5418V14.5491C15.5162 14.7071 15.4521 14.8584 15.3385 14.9709L15.3348 14.9745L12.852 17.3988H12.8532Z" fill="current"/>
</svg>
