<svg width="16" height="18" viewBox="0 0 16 18" fill="none" xmlns="http://www.w3.org/2000/svg">
<path d="M10.4 10.8C11.4609 10.8 12.4783 11.2741 13.2284 12.118C13.9786 12.9619 14.4 14.1065 14.4 15.3V16.2C14.4 16.6774 14.2314 17.1352 13.9314 17.4728C13.6313 17.8104 13.2243 18 12.8 18H1.6C1.17565 18 0.768687 17.8104 0.468629 17.4728C0.168571 17.1352 0 16.6774 0 16.2V15.3C0 14.1065 0.421427 12.9619 1.17157 12.118C1.92172 11.2741 2.93913 10.8 4 10.8H10.4ZM13.6 5.4C13.8122 5.4 14.0157 5.49482 14.1657 5.6636C14.3157 5.83239 14.4 6.0613 14.4 6.3V7.2H15.2C15.4122 7.2 15.6157 7.29482 15.7657 7.4636C15.9157 7.63239 16 7.8613 16 8.1C16 8.33869 15.9157 8.56761 15.7657 8.7364C15.6157 8.90518 15.4122 9 15.2 9H14.4V9.9C14.4 10.1387 14.3157 10.3676 14.1657 10.5364C14.0157 10.7052 13.8122 10.8 13.6 10.8C13.3878 10.8 13.1843 10.7052 13.0343 10.5364C12.8843 10.3676 12.8 10.1387 12.8 9.9V9H12C11.7878 9 11.5843 8.90518 11.4343 8.7364C11.2843 8.56761 11.2 8.33869 11.2 8.1C11.2 7.8613 11.2843 7.63239 11.4343 7.4636C11.5843 7.29482 11.7878 7.2 12 7.2H12.8V6.3C12.8 6.0613 12.8843 5.83239 13.0343 5.6636C13.1843 5.49482 13.3878 5.4 13.6 5.4ZM7.2 0C8.26087 0 9.27828 0.474106 10.0284 1.31802C10.7786 2.16193 11.2 3.30653 11.2 4.5C11.2 5.69347 10.7786 6.83807 10.0284 7.68198C9.27828 8.52589 8.26087 9 7.2 9C6.13913 9 5.12172 8.52589 4.37157 7.68198C3.62143 6.83807 3.2 5.69347 3.2 4.5C3.2 3.30653 3.62143 2.16193 4.37157 1.31802C5.12172 0.474106 6.13913 0 7.2 0Z" fill="current"/>
</svg>
